<svg width="44" height="36" viewBox="0 0 44 36" fill="none" xmlns="http://www.w3.org/2000/svg">
<path d="M19.875 6.5H16.5V5.4C16.5 4.23305 16.0259 3.11389 15.182 2.28873C14.3381 1.46357 13.1935 1 12 1C10.8065 1 9.66193 1.46357 8.81802 2.28873C7.97411 3.11389 7.5 4.23305 7.5 5.4V6.5H4.125C3.82663 6.5 3.54048 6.61589 3.32951 6.82218C3.11853 7.02847 3 7.30826 3 7.6V19.7C3 20.5752 3.35558 21.4146 3.98851 22.0335C4.62145 22.6523 5.47989 23 6.375 23H17.625C18.5201 23 19.3786 22.6523 20.0115 22.0335C20.6444 21.4146 21 20.5752 21 19.7V7.6C21 7.30826 20.8815 7.02847 20.6705 6.82218C20.4595 6.61589 20.1734 6.5 19.875 6.5ZM9.75 5.4C9.75 4.81652 9.98705 4.25695 10.409 3.84437C10.831 3.43179 11.4033 3.2 12 3.2C12.5967 3.2 13.169 3.43179 13.591 3.84437C14.0129 4.25695 14.25 4.81652 14.25 5.4V6.5H9.75V5.4ZM18.75 19.7C18.75 19.9917 18.6315 20.2715 18.4205 20.4778C18.2095 20.6841 17.9234 20.8 17.625 20.8H6.375C6.07663 20.8 5.79048 20.6841 5.5795 20.4778C5.36853 20.2715 5.25 19.9917 5.25 19.7V8.7H7.5V9.8C7.5 10.0917 7.61853 10.3715 7.8295 10.5778C8.04048 10.7841 8.32663 10.9 8.625 10.9C8.92337 10.9 9.20952 10.7841 9.4205 10.5778C9.63147 10.3715 9.75 10.0917 9.75 9.8V8.7H14.25V9.8C14.25 10.0917 14.3685 10.3715 14.5795 10.5778C14.7905 10.7841 15.0766 10.9 15.375 10.9C15.6734 10.9 15.9595 10.7841 16.1705 10.5778C16.3815 10.3715 16.5 10.0917 16.5 9.8V8.7H18.75V19.7Z" fill="#7E8089"/>
<circle cx="29" cy="21" r="13.5" fill="#FF5100" stroke="white" stroke-width="3"/>
<path d="M33.0396 26H24.8965V24.5806L28.8311 20.3057C29.4785 19.5918 29.9212 19.0135 30.1592 18.5708C30.3971 18.1281 30.5161 17.7075 30.5161 17.3091C30.5161 16.7502 30.3612 16.2936 30.0513 15.9395C29.7469 15.5798 29.3097 15.3999 28.7397 15.3999C28.0701 15.3999 27.5666 15.6102 27.229 16.0308C26.8914 16.4458 26.7227 16.9743 26.7227 17.6162H24.6641C24.6641 16.9079 24.8245 16.2604 25.1455 15.6738C25.472 15.0872 25.9396 14.6196 26.5483 14.271C27.1626 13.9224 27.9014 13.748 28.7646 13.748C29.9821 13.748 30.9229 14.0496 31.5869 14.6528C32.251 15.256 32.583 16.0695 32.583 17.0933C32.583 17.8625 32.3478 18.6095 31.8774 19.3345C31.4071 20.0594 30.8066 20.8065 30.0762 21.5757L27.4946 24.3481H33.0396V26Z" fill="white"/>
</svg>
