<svg width="24" height="24" viewBox="0 0 24 24" fill="none" xmlns="http://www.w3.org/2000/svg">
<path d="M12.5 13.0848C13.0534 13.0848 13.5944 12.9234 14.0546 12.621C14.5148 12.3186 14.8734 11.8888 15.0852 11.3859C15.297 10.8831 15.3524 10.3297 15.2445 9.79588C15.1365 9.26204 14.87 8.77168 14.4786 8.38681C14.0873 8.00193 13.5887 7.73983 13.0459 7.63364C12.5031 7.52745 11.9405 7.58195 11.4292 7.79024C10.9179 7.99854 10.4808 8.35127 10.1734 8.80384C9.86588 9.2564 9.70177 9.78847 9.70177 10.3328C9.70177 11.0626 9.99658 11.7626 10.5214 12.2787C11.0461 12.7948 11.7579 13.0848 12.5 13.0848ZM11.5066 22.593C11.6367 22.7219 11.7914 22.8243 11.9619 22.8942C12.1324 22.964 12.3153 23 12.5 23C12.6847 23 12.8676 22.964 13.0381 22.8942C13.2086 22.8243 13.3633 22.7219 13.4934 22.593L19.2158 16.9514C20.5448 15.6449 21.4501 13.9801 21.8171 12.1676C22.1841 10.3551 21.9962 8.47627 21.2773 6.76876C20.5584 5.06126 19.3408 3.60178 17.7784 2.57493C16.2161 1.54809 14.3791 1 12.5 1C10.6209 1 8.78394 1.54809 7.22157 2.57493C5.65919 3.60178 4.44156 5.06126 3.72267 6.76876C3.00379 8.47627 2.81595 10.3551 3.18291 12.1676C3.54987 13.9801 4.45515 15.6449 5.78424 16.9514L11.5066 22.593ZM5.82622 9.69981C5.92181 8.71874 6.23898 7.77105 6.75457 6.92594C7.27015 6.08083 7.97113 5.35962 8.80633 4.81499C9.90353 4.10648 11.1874 3.72899 12.5 3.72899C13.8126 3.72899 15.0965 4.10648 16.1937 4.81499C17.0233 5.35775 17.7203 6.07458 18.2346 6.91393C18.7489 7.75327 19.0677 8.69426 19.168 9.66924C19.2683 10.6442 19.1477 11.629 18.8149 12.5526C18.482 13.4763 17.9452 14.3159 17.243 15.0112L12.5 19.6758L7.757 15.0112C7.05397 14.3227 6.51588 13.4887 6.18188 12.5699C5.84788 11.6511 5.72638 10.6706 5.82622 9.69981Z" fill="#7E8089"/>
</svg>
