<svg width="24" height="24" viewBox="0 0 24 24" fill="none" xmlns="http://www.w3.org/2000/svg">
<path d="M12 1C9.86247 1.00406 7.77224 1.62909 5.98392 2.79897C4.19561 3.96885 2.78639 5.63308 1.9279 7.58896C1.06942 9.54483 0.798738 11.7079 1.14882 13.8148C1.4989 15.9216 2.45463 17.8813 3.89961 19.4551C4.93164 20.5728 6.18419 21.4648 7.57833 22.0749C8.97248 22.685 10.478 23 12 23C13.522 23 15.0275 22.685 16.4217 22.0749C17.8158 21.4648 19.0684 20.5728 20.1004 19.4551C21.5454 17.8813 22.5011 15.9216 22.8512 13.8148C23.2013 11.7079 22.9306 9.54483 22.0721 7.58896C21.2136 5.63308 19.8044 3.96885 18.0161 2.79897C16.2278 1.62909 14.1375 1.00406 12 1ZM12 20.8205C9.71698 20.817 7.52431 19.9289 5.88338 18.3429C6.38158 17.1312 7.22907 16.0947 8.31819 15.3653C9.4073 14.6359 10.6888 14.2465 12 14.2465C13.3112 14.2465 14.5927 14.6359 15.6818 15.3653C16.7709 16.0947 17.6184 17.1312 18.1166 18.3429C16.4757 19.9289 14.283 20.817 12 20.8205ZM9.79581 9.8091C9.79581 9.37354 9.92509 8.94775 10.1673 8.58559C10.4095 8.22342 10.7537 7.94115 11.1565 7.77447C11.5593 7.60778 12.0024 7.56417 12.43 7.64915C12.8576 7.73412 13.2503 7.94387 13.5586 8.25186C13.8669 8.55986 14.0768 8.95226 14.1618 9.37946C14.2469 9.80666 14.2032 10.2495 14.0364 10.6519C13.8696 11.0543 13.5871 11.3982 13.2246 11.6402C12.8621 11.8822 12.4359 12.0114 12 12.0114C11.4154 12.0114 10.8548 11.7794 10.4414 11.3663C10.028 10.9533 9.79581 10.3932 9.79581 9.8091ZM19.6155 16.4159C18.6308 14.7331 17.1153 13.4242 15.3063 12.6941C15.8674 12.0584 16.2331 11.2743 16.3593 10.4361C16.4855 9.59793 16.367 8.74113 16.018 7.96855C15.6689 7.19597 15.1041 6.54044 14.3914 6.08061C13.6787 5.62079 12.8484 5.3762 12 5.3762C11.1516 5.3762 10.3213 5.62079 9.60856 6.08061C8.89586 6.54044 8.3311 7.19597 7.98204 7.96855C7.63299 8.74113 7.51447 9.59793 7.6407 10.4361C7.76694 11.2743 8.13257 12.0584 8.69372 12.6941C6.88474 13.4242 5.36922 14.7331 4.38454 16.4159C3.59978 15.0804 3.18515 13.5601 3.18325 12.0114C3.18325 9.67506 4.11216 7.43443 5.76562 5.7824C7.41908 4.13038 9.66165 3.20228 12 3.20228C14.3383 3.20228 16.5809 4.13038 18.2344 5.7824C19.8878 7.43443 20.8167 9.67506 20.8167 12.0114C20.8149 13.5601 20.4002 15.0804 19.6155 16.4159Z" fill="#7E8089"/>
</svg>
